<svg width="64" height="64" viewBox="0 0 64 64" fill="none" xmlns="http://www.w3.org/2000/svg">
<g filter="url(#filter0_d)">
<path d="M60 13.779C55.7675 9.43493 50.1238 6.33561 43.8285 4.89817C37.5331 3.46072 30.8882 3.75415 24.7882 5.73896C18.6881 7.72377 13.4256 11.3047 9.709 15.9998C5.99238 20.6949 4 26.2788 4 32C4 37.7212 5.99238 43.3051 9.709 48.0002C13.4256 52.6953 18.6881 56.2762 24.7882 58.261C30.8882 60.2458 37.5331 60.5393 43.8285 59.1018C50.1238 57.6644 55.7675 54.5651 60 50.221L39.8112 32L60 13.779ZM43.7901 10.594C44.3732 10.594 44.9506 10.695 45.4893 10.8913C46.0281 11.0876 46.5176 11.3753 46.9299 11.738C47.3423 12.1007 47.6693 12.5313 47.8925 13.0052C48.1156 13.4791 48.2305 13.9871 48.2305 14.5C48.2305 15.0129 48.1156 15.5209 47.8925 15.9948C47.6693 16.4687 47.3423 16.8993 46.9299 17.262C46.5176 17.6247 46.0281 17.9124 45.4893 18.1087C44.9506 18.305 44.3732 18.406 43.7901 18.406C42.6124 18.406 41.483 17.9945 40.6502 17.262C39.8175 16.5294 39.3496 15.5359 39.3496 14.5C39.3496 13.4641 39.8175 12.4706 40.6502 11.738C41.483 11.0055 42.6124 10.594 43.7901 10.594Z" fill="#FFFF00"/>
</g>
<path d="M48.3811 14.5685C48.3811 16.7914 46.3325 18.5935 43.8054 18.5935C41.2783 18.5935 39.2297 16.7914 39.2297 14.5685C39.2297 12.3455 41.2783 10.5435 43.8054 10.5435C46.3325 10.5435 48.3811 12.3455 48.3811 14.5685Z" fill="#151D23"/>
<defs>
<filter id="filter0_d" x="2" y="4" width="60" height="60" filterUnits="userSpaceOnUse" color-interpolation-filters="sRGB">
<feFlood flood-opacity="0" result="BackgroundImageFix"/>
<feColorMatrix in="SourceAlpha" type="matrix" values="0 0 0 0 0 0 0 0 0 0 0 0 0 0 0 0 0 0 127 0"/>
<feOffset dy="2"/>
<feGaussianBlur stdDeviation="1"/>
<feColorMatrix type="matrix" values="0 0 0 0 0 0 0 0 0 0 0 0 0 0 0 0 0 0 0.25 0"/>
<feBlend mode="normal" in2="BackgroundImageFix" result="effect1_dropShadow"/>
<feBlend mode="normal" in="SourceGraphic" in2="effect1_dropShadow" result="shape"/>
</filter>
</defs>
</svg>
